<svg width="33" height="33" viewBox="0 0 33 33" fill="none" xmlns="http://www.w3.org/2000/svg">
<path d="M31.9066 22.4074C33.048 19.4413 33.3024 16.2072 32.6386 13.0992C31.9748 9.99109 30.4216 7.14309 28.168 4.90204C26.6443 3.35642 24.8299 2.12757 22.8292 1.28627C20.8285 0.444969 18.6811 0.00785421 16.5107 0.000104877C14.3403 -0.00764445 12.1899 0.414125 10.1832 1.24112C8.17656 2.06811 6.35337 3.28397 4.81867 4.81867C3.28397 6.35337 2.06811 8.17656 1.24112 10.1832C0.414125 12.1899 -0.00764445 14.3403 0.000104877 16.5107C0.00785421 18.6811 0.444969 20.8285 1.28627 22.8292C2.12757 24.8299 3.35642 26.6443 4.90204 28.168C7.14309 30.4216 9.99109 31.9748 13.0992 32.6386C16.2072 33.3024 19.4413 33.048 22.4074 31.9066L28.0034 32.9294C28.2515 32.9762 28.5034 32.9998 28.7559 32.9999C29.3764 32.9988 29.9892 32.8618 30.5512 32.5984C31.1131 32.335 31.6104 31.9516 32.0083 31.4754C32.4061 30.9991 32.6948 30.4414 32.8539 29.8416C33.013 29.2417 33.0388 28.6143 32.9294 28.0034L31.9066 22.4074ZM16.6467 18.3044C16.2979 18.3044 15.957 18.201 15.667 18.0072C15.377 17.8134 15.151 17.538 15.0175 17.2158C14.884 16.8935 14.8491 16.539 14.9171 16.1969C14.9852 15.8548 15.1531 15.5406 15.3998 15.294C15.6464 15.0473 15.9606 14.8794 16.3027 14.8113C16.6448 14.7433 16.9993 14.7782 17.3216 14.9117C17.6438 15.0452 17.9192 15.2712 18.113 15.5612C18.3068 15.8512 18.4102 16.1921 18.4102 16.5409C18.4102 17.0086 18.2244 17.4572 17.8937 17.7879C17.563 18.1186 17.1144 18.3044 16.6467 18.3044ZM9.00504 14.7774C9.35382 14.7774 9.69476 14.8809 9.98477 15.0746C10.2748 15.2684 10.5008 15.5438 10.6343 15.8661C10.7677 16.1883 10.8027 16.5429 10.7346 16.8849C10.6666 17.227 10.4986 17.5412 10.252 17.7879C10.0054 18.0345 9.69115 18.2025 9.34907 18.2705C9.00699 18.3385 8.65242 18.3036 8.33019 18.1701C8.00796 18.0367 7.73254 17.8106 7.53877 17.5206C7.345 17.2306 7.24157 16.8897 7.24157 16.5409C7.24157 16.0732 7.42736 15.6247 7.75808 15.294C8.08879 14.9632 8.53734 14.7774 9.00504 14.7774ZM24.2884 14.7774C24.6372 14.7774 24.9781 14.8809 25.2681 15.0746C25.5581 15.2684 25.7842 15.5438 25.9176 15.8661C26.0511 16.1883 26.086 16.5429 26.018 16.8849C25.9499 17.227 25.782 17.5412 25.5354 17.7879C25.2887 18.0345 24.9745 18.2025 24.6324 18.2705C24.2904 18.3385 23.9358 18.3036 23.6136 18.1701C23.2913 18.0367 23.0159 17.8106 22.8221 17.5206C22.6284 17.2306 22.5249 16.8897 22.5249 16.5409C22.5249 16.0732 22.7107 15.6247 23.0415 15.294C23.3722 14.9632 23.8207 14.7774 24.2884 14.7774Z" fill="#151E2B"/>
</svg>
