<svg width="22" height="18" viewBox="0 0 22 18" fill="none" xmlns="http://www.w3.org/2000/svg">
<path d="M2.2 18.0039C1.595 18.0039 1.07727 17.7838 0.6468 17.3435C0.216333 16.9033 0.000733333 16.3734 0 15.7539V2.25391C0 1.63516 0.2156 1.10566 0.6468 0.665406C1.078 0.225156 1.59573 0.00465625 2.2 0.00390625H19.8C20.405 0.00390625 20.9231 0.224406 21.3543 0.665406C21.7855 1.10641 22.0007 1.63591 22 2.25391V15.7539C22 16.3727 21.7848 16.9025 21.3543 17.3435C20.9238 17.7845 20.4057 18.0047 19.8 18.0039H2.2ZM11 10.1289L19.8 4.50391V2.25391L11 7.87891L2.2 2.25391V4.50391L11 10.1289Z" fill="white"/>
</svg>
