<svg width="20" height="20" viewBox="0 0 20 20" fill="none" xmlns="http://www.w3.org/2000/svg">
<path d="M15.105 0.24613L14.195 0L13.7018 1.82004L14.6127 2.06711C15.4084 2.28248 16.1337 2.70267 16.7163 3.28577C17.2989 3.86887 17.7184 4.59451 17.9331 5.39033L18.1783 6.30035L19.9993 5.80904L19.7541 4.89902C19.4535 3.78472 18.8661 2.7687 18.0503 1.95229C17.2346 1.13587 16.219 0.547595 15.105 0.24613ZM14.2431 3.43167L13.333 3.18554L12.8398 5.00558L13.7508 5.25265C13.9894 5.31729 14.2069 5.44333 14.3817 5.61823C14.5564 5.79312 14.6822 6.01075 14.7466 6.24943L14.9918 7.15945L16.8128 6.66908L16.5676 5.75811C16.4173 5.20097 16.1236 4.69296 15.7157 4.28475C15.3079 3.87654 14.8001 3.5824 14.2431 3.43167Z" fill="white"/>
<path d="M8.09118 0.200684H2.72906e-05V1.14371C-0.0061627 4.77404 1.04077 8.32824 3.01394 11.3755C4.46812 13.6226 6.38169 15.5361 8.62871 16.9903C11.676 18.9635 15.2302 20.0104 18.8605 20.0042H19.8036V11.9131L13.4947 10.5108L11.7407 12.2648C10.1356 11.2335 8.77132 9.86884 7.74038 8.26355L9.49346 6.50952L8.09118 0.200684Z" fill="white"/>
</svg>
