<svg width="20" height="16" viewBox="0 0 20 16" fill="none" xmlns="http://www.w3.org/2000/svg">
<path fill-rule="evenodd" clip-rule="evenodd" d="M14.8823 15.8233C15.1429 16.0057 15.4789 16.0513 15.7784 15.9393C16.0779 15.8265 16.2981 15.5737 16.3645 15.2673C17.0679 12.0001 18.7744 3.73052 19.4147 0.758519C19.4633 0.534519 19.3823 0.301719 19.2042 0.152119C19.0261 0.00251863 18.7792 -0.0406815 18.559 0.0401186C15.1648 1.28172 4.71164 5.15772 0.439074 6.72013C0.16789 6.81933 -0.00858249 7.07693 0.000322065 7.35933C0.0100361 7.64253 0.202698 7.88813 0.480359 7.97053C2.39646 8.53693 4.91159 9.32493 4.91159 9.32493C4.91159 9.32493 6.08699 12.8329 6.69979 14.6169C6.77669 14.8409 6.95397 15.0169 7.18792 15.0777C7.42106 15.1377 7.67038 15.0745 7.84443 14.9121C8.82879 13.9937 10.3507 12.5737 10.3507 12.5737C10.3507 12.5737 13.2422 14.6689 14.8823 15.8233ZM5.96961 8.88173L7.32877 13.3121L7.63072 10.5065C7.63072 10.5065 12.882 5.82573 15.8755 3.15772C15.963 3.07932 15.9751 2.94812 15.9022 2.85612C15.8302 2.76412 15.6974 2.74252 15.5979 2.80492C12.1283 4.99452 5.96961 8.88173 5.96961 8.88173Z" fill="#671E45"/>
</svg>
